<svg xmlns="http://www.w3.org/2000/svg" width="640" height="360" viewBox="0 0 640 360">
  <rect x="2" y="2" width="636" height="356" rx="24" fill="#e5e7eb"/>
  <rect x="0" y="0" width="636" height="356" rx="24" fill="#ffffff" stroke="#e5e7eb" stroke-width="1.5"/>
  <rect x="0" y="0" width="636" height="52" rx="24" fill="#f9fafb"/>
  <rect x="0" y="26" width="636" height="26" fill="#f9fafb"/>
  <rect x="0" y="51" width="636" height="1.5" fill="#e5e7eb"/>
  <circle cx="40" cy="26" r="8" fill="#fca5a5"/>
  <circle cx="66" cy="26" r="8" fill="#fcd34d"/>
  <circle cx="92" cy="26" r="8" fill="#86efac"/>
  <rect x="116" y="14" width="360" height="24" rx="12" fill="#e5e7eb"/>
  <rect x="0" y="52" width="636" height="54" fill="#1a1a1a"/>
  <rect x="140" y="68" width="220" height="12" rx="6" fill="rgba(255,255,255,0.4)"/>
  <rect x="380" y="64" width="100" height="24" rx="6" fill="#2563eb"/>
  <rect x="392" y="72" width="76" height="10" rx="4" fill="rgba(255,255,255,0.7)"/>
  <text x="596" y="86" font-size="22" fill="rgba(255,255,255,0.45)" font-family="sans-serif" text-anchor="middle">×</text>
  <rect x="36" y="126" width="90" height="16" rx="8" fill="#e5e7eb"/>
  <rect x="430" y="126" width="56" height="16" rx="8" fill="#e5e7eb"/>
  <rect x="494" y="126" width="56" height="16" rx="8" fill="#e5e7eb"/>
  <rect x="558" y="126" width="46" height="16" rx="8" fill="#e5e7eb"/>
  <rect x="36" y="160" width="340" height="170" rx="14" fill="#f3f4f6"/>
  <rect x="106" y="220" width="200" height="12" rx="6" fill="#d1d5db"/>
  <rect x="126" y="238" width="160" height="12" rx="6" fill="#d1d5db"/>
  <rect x="396" y="160" width="204" height="80" rx="12" fill="#f3f4f6"/>
  <rect x="396" y="254" width="204" height="16" rx="8" fill="#f3f4f6"/>
  <rect x="396" y="278" width="150" height="16" rx="8" fill="#f3f4f6"/>
  <rect x="396" y="306" width="204" height="28" rx="8" fill="#2563eb" opacity="0.15"/>
</svg>
