<svg xmlns="http://www.w3.org/2000/svg" width="640" height="360" viewBox="0 0 640 360">
  <rect x="2" y="2" width="636" height="356" rx="24" fill="#e5e7eb"/>
  <rect x="0" y="0" width="636" height="356" rx="24" fill="#ffffff" stroke="#e5e7eb" stroke-width="1.5"/>
  <rect x="0" y="0" width="636" height="52" rx="24" fill="#f9fafb"/>
  <rect x="0" y="26" width="636" height="26" fill="#f9fafb"/>
  <rect x="0" y="51" width="636" height="1.5" fill="#e5e7eb"/>
  <circle cx="40" cy="26" r="8" fill="#fca5a5"/>
  <circle cx="66" cy="26" r="8" fill="#fcd34d"/>
  <circle cx="92" cy="26" r="8" fill="#86efac"/>
  <rect x="116" y="14" width="360" height="24" rx="12" fill="#e5e7eb"/>
  <rect x="0" y="52" width="636" height="60" fill="#1a1a1a"/>
  <rect x="140" y="64" width="280" height="12" rx="6" fill="rgba(255,255,255,0.4)"/>
  <rect x="140" y="84" width="280" height="10" rx="5" fill="rgba(255,255,255,0.12)"/>
  <rect x="140" y="84" width="182" height="10" rx="5" fill="#22c55e"/>
  <circle cx="322" cy="89" r="9" fill="#1a1a1a"/>
  <circle cx="322" cy="89" r="5.5" fill="#22c55e"/>
  <text x="596" y="90" font-size="22" fill="rgba(255,255,255,0.45)" font-family="sans-serif" text-anchor="middle">×</text>
  <rect x="36" y="132" width="90" height="16" rx="8" fill="#e5e7eb"/>
  <rect x="430" y="132" width="56" height="16" rx="8" fill="#e5e7eb"/>
  <rect x="494" y="132" width="56" height="16" rx="8" fill="#e5e7eb"/>
  <rect x="558" y="132" width="46" height="16" rx="8" fill="#e5e7eb"/>
  <rect x="36" y="162" width="180" height="150" rx="12" fill="#f3f4f6"/>
  <rect x="228" y="162" width="180" height="150" rx="12" fill="#f3f4f6"/>
  <rect x="420" y="162" width="180" height="150" rx="12" fill="#f3f4f6"/>
  <rect x="36" y="320" width="180" height="12" rx="6" fill="#e5e7eb"/>
  <rect x="228" y="320" width="180" height="12" rx="6" fill="#e5e7eb"/>
  <rect x="420" y="320" width="180" height="12" rx="6" fill="#e5e7eb"/>
  <rect x="36" y="340" width="120" height="12" rx="6" fill="#e5e7eb"/>
  <rect x="228" y="340" width="120" height="12" rx="6" fill="#e5e7eb"/>
  <rect x="420" y="340" width="120" height="12" rx="6" fill="#e5e7eb"/>
</svg>
